<?xml version="1.0" standalone="no"?>
<!DOCTYPE svg PUBLIC "-//W3C//DTD SVG 20010904//EN"
 "http://www.w3.org/TR/2001/REC-SVG-20010904/DTD/svg10.dtd">
<svg version="1.0" xmlns="http://www.w3.org/2000/svg"
 width="212.000000pt" height="191.000000pt" viewBox="0 0 212.000000 191.000000"
 preserveAspectRatio="xMidYMid meet">
<metadata>
Created by potrace 1.16, written by Peter Selinger 2001-2019
</metadata>
<g transform="translate(0.000000,191.000000) scale(0.100000,-0.100000)"
fill="#000000" stroke="none">
<path d="M891 1619 c-132 -22 -262 -125 -323 -256 -60 -127 -48 -294 28 -415
161 -254 535 -274 720 -39 39 50 42 57 28 68 -14 10 -21 6 -44 -25 -62 -84
-134 -133 -231 -158 -181 -47 -378 45 -462 215 -30 62 -32 72 -32 176 0 100 2
115 28 167 60 123 168 205 304 230 129 24 271 -28 367 -133 37 -41 56 -55 66
-49 11 7 10 13 -4 35 -59 90 -181 166 -296 184 -73 12 -74 12 -149 0z"/>
<path d="M854 1480 c-71 -28 -137 -89 -171 -158 -37 -75 -40 -191 -6 -264 32
-70 94 -131 164 -163 54 -24 71 -27 142 -23 62 2 94 9 130 28 86 43 155 136
172 233 l7 37 100 0 101 0 -7 -40 c-3 -23 -12 -58 -20 -80 -12 -34 -11 -40 2
-45 18 -7 28 6 42 55 19 64 23 144 10 205 -16 78 -31 107 -49 96 -12 -8 -12
-18 2 -68 29 -103 71 -93 -384 -93 l-401 0 7 37 c16 86 77 161 163 201 45 20
65 23 125 20 87 -5 137 -27 194 -86 38 -39 63 -47 63 -21 0 20 -71 87 -122
114 -71 39 -187 45 -264 15z m393 -344 c-21 -132 -141 -231 -276 -230 -73 1
-123 18 -180 63 -42 34 -86 108 -96 164 l-7 37 282 0 283 0 -6 -34z"/>
<path d="M547 563 c-4 -3 -7 -73 -7 -155 l0 -148 95 0 c88 0 98 2 120 25 25
24 32 65 19 100 -11 28 -60 45 -131 45 l-68 0 3 50 4 50 89 0 c82 0 89 1 89
20 0 19 -7 20 -103 20 -57 0 -107 -3 -110 -7z m181 -179 c26 -18 29 -56 6 -78
-11 -12 -35 -16 -85 -16 l-69 0 0 55 0 55 63 0 c40 0 70 -5 85 -16z"/>
<path d="M820 415 l0 -155 100 0 c82 0 100 3 100 15 0 12 -16 15 -85 15 l-85
0 0 55 0 55 60 0 c47 0 60 3 60 15 0 12 -13 15 -60 15 l-60 0 0 50 0 50 85 0
c78 0 85 2 85 20 0 19 -7 20 -100 20 l-100 0 0 -155z"/>
<path d="M1143 559 c-51 -10 -83 -37 -105 -86 -59 -133 80 -261 210 -194 31
16 72 64 72 85 0 17 -26 2 -54 -30 -60 -69 -167 -51 -203 33 -20 48 -5 101 38
137 53 45 148 29 180 -31 13 -23 39 -32 39 -12 0 17 -39 68 -63 81 -34 18 -79
25 -114 17z"/>
<path d="M1320 550 c0 -17 6 -20 50 -20 l50 0 0 -135 c0 -113 2 -135 15 -135
13 0 15 22 15 135 l0 135 51 0 c43 0 50 3 47 18 -3 15 -18 17 -116 20 -107 3
-112 2 -112 -18z"/>
</g>
</svg>
